<svg width="1373" height="438" viewBox="0 0 1373 438" fill="none" xmlns="http://www.w3.org/2000/svg">
<rect x="0.5" y="157.5" width="416" height="104" rx="24.5" fill="white" stroke="black"/>
<path d="M55.7529 200.09V221H53.0229V200.09H55.7529ZM68.4157 204.26C70.4157 204.26 72.0357 204.87 73.2757 206.09C74.5157 207.29 75.1357 209.03 75.1357 211.31V221H72.4357V211.7C72.4357 210.06 72.0257 208.81 71.2057 207.95C70.3857 207.07 69.2657 206.63 67.8457 206.63C66.4057 206.63 65.2557 207.08 64.3957 207.98C63.5557 208.88 63.1357 210.19 63.1357 211.91V221H60.4057V204.56H63.1357V206.9C63.6757 206.06 64.4057 205.41 65.3257 204.95C66.2657 204.49 67.2957 204.26 68.4157 204.26ZM82.9252 206.81V216.5C82.9252 217.3 83.0952 217.87 83.4352 218.21C83.7752 218.53 84.3652 218.69 85.2052 218.69H87.2152V221H84.7552C83.2352 221 82.0952 220.65 81.3352 219.95C80.5752 219.25 80.1952 218.1 80.1952 216.5V206.81H78.0652V204.56H80.1952V200.42H82.9252V204.56H87.2152V206.81H82.9252ZM105.523 212.15C105.523 212.67 105.493 213.22 105.433 213.8H92.2929C92.3929 215.42 92.9429 216.69 93.9429 217.61C94.9629 218.51 96.1929 218.96 97.6329 218.96C98.8129 218.96 99.7929 218.69 100.573 218.15C101.373 217.59 101.933 216.85 102.253 215.93H105.193C104.753 217.51 103.873 218.8 102.553 219.8C101.233 220.78 99.5929 221.27 97.6329 221.27C96.0729 221.27 94.6729 220.92 93.4329 220.22C92.2129 219.52 91.2529 218.53 90.5529 217.25C89.8529 215.95 89.5029 214.45 89.5029 212.75C89.5029 211.05 89.8429 209.56 90.5229 208.28C91.2029 207 92.1529 206.02 93.3729 205.34C94.6129 204.64 96.0329 204.29 97.6329 204.29C99.1929 204.29 100.573 204.63 101.773 205.31C102.973 205.99 103.893 206.93 104.533 208.13C105.193 209.31 105.523 210.65 105.523 212.15ZM102.703 211.58C102.703 210.54 102.473 209.65 102.013 208.91C101.553 208.15 100.923 207.58 100.123 207.2C99.3429 206.8 98.4729 206.6 97.5129 206.6C96.1329 206.6 94.9529 207.04 93.9729 207.92C93.0129 208.8 92.4629 210.02 92.3229 211.58H102.703ZM111.856 207.23C112.336 206.29 113.016 205.56 113.896 205.04C114.796 204.52 115.886 204.26 117.166 204.26V207.08H116.446C113.386 207.08 111.856 208.74 111.856 212.06V221H109.126V204.56H111.856V207.23ZM126.438 218.48L131.538 204.56H134.448L127.998 221H124.818L118.368 204.56H121.308L126.438 218.48ZM138.544 201.89C138.024 201.89 137.584 201.71 137.224 201.35C136.864 200.99 136.684 200.55 136.684 200.03C136.684 199.51 136.864 199.07 137.224 198.71C137.584 198.35 138.024 198.17 138.544 198.17C139.044 198.17 139.464 198.35 139.804 198.71C140.164 199.07 140.344 199.51 140.344 200.03C140.344 200.55 140.164 200.99 139.804 201.35C139.464 201.71 139.044 201.89 138.544 201.89ZM139.864 204.56V221H137.134V204.56H139.864ZM159.517 212.15C159.517 212.67 159.487 213.22 159.427 213.8H146.287C146.387 215.42 146.937 216.69 147.937 217.61C148.957 218.51 150.187 218.96 151.627 218.96C152.807 218.96 153.787 218.69 154.567 218.15C155.367 217.59 155.927 216.85 156.247 215.93H159.187C158.747 217.51 157.867 218.8 156.547 219.8C155.227 220.78 153.587 221.27 151.627 221.27C150.067 221.27 148.667 220.92 147.427 220.22C146.207 219.52 145.247 218.53 144.547 217.25C143.847 215.95 143.497 214.45 143.497 212.75C143.497 211.05 143.837 209.56 144.517 208.28C145.197 207 146.147 206.02 147.367 205.34C148.607 204.64 150.027 204.29 151.627 204.29C153.187 204.29 154.567 204.63 155.767 205.31C156.967 205.99 157.887 206.93 158.527 208.13C159.187 209.31 159.517 210.65 159.517 212.15ZM156.697 211.58C156.697 210.54 156.467 209.65 156.007 208.91C155.547 208.15 154.917 207.58 154.117 207.2C153.337 206.8 152.467 206.6 151.507 206.6C150.127 206.6 148.947 207.04 147.967 207.92C147.007 208.8 146.457 210.02 146.317 211.58H156.697ZM185.021 204.56L179.891 221H177.071L173.111 207.95L169.151 221H166.331L161.171 204.56H163.961L167.741 218.36L171.821 204.56H174.611L178.601 218.39L182.321 204.56H185.021ZM209.708 206.21C209.708 207.95 209.108 209.4 207.908 210.56C206.728 211.7 204.918 212.27 202.478 212.27H198.458V221H195.728V200.09H202.478C204.838 200.09 206.628 200.66 207.848 201.8C209.088 202.94 209.708 204.41 209.708 206.21ZM202.478 210.02C203.998 210.02 205.118 209.69 205.838 209.03C206.558 208.37 206.918 207.43 206.918 206.21C206.918 203.63 205.438 202.34 202.478 202.34H198.458V210.02H202.478ZM215.831 207.23C216.311 206.29 216.991 205.56 217.871 205.04C218.771 204.52 219.861 204.26 221.141 204.26V207.08H220.421C217.361 207.08 215.831 208.74 215.831 212.06V221H213.101V204.56H215.831V207.23ZM239.292 212.15C239.292 212.67 239.262 213.22 239.202 213.8H226.062C226.162 215.42 226.712 216.69 227.712 217.61C228.732 218.51 229.962 218.96 231.402 218.96C232.582 218.96 233.562 218.69 234.342 218.15C235.142 217.59 235.702 216.85 236.022 215.93H238.962C238.522 217.51 237.642 218.8 236.322 219.8C235.002 220.78 233.362 221.27 231.402 221.27C229.842 221.27 228.442 220.92 227.202 220.22C225.982 219.52 225.022 218.53 224.322 217.25C223.622 215.95 223.272 214.45 223.272 212.75C223.272 211.05 223.612 209.56 224.292 208.28C224.972 207 225.922 206.02 227.142 205.34C228.382 204.64 229.802 204.29 231.402 204.29C232.962 204.29 234.342 204.63 235.542 205.31C236.742 205.99 237.662 206.93 238.302 208.13C238.962 209.31 239.292 210.65 239.292 212.15ZM236.472 211.58C236.472 210.54 236.242 209.65 235.782 208.91C235.322 208.15 234.692 207.58 233.892 207.2C233.112 206.8 232.242 206.6 231.282 206.6C229.902 206.6 228.722 207.04 227.742 207.92C226.782 208.8 226.232 210.02 226.092 211.58H236.472ZM245.626 207.59C246.166 206.65 246.966 205.87 248.026 205.25C249.106 204.61 250.356 204.29 251.776 204.29C253.236 204.29 254.556 204.64 255.736 205.34C256.936 206.04 257.876 207.03 258.556 208.31C259.236 209.57 259.576 211.04 259.576 212.72C259.576 214.38 259.236 215.86 258.556 217.16C257.876 218.46 256.936 219.47 255.736 220.19C254.556 220.91 253.236 221.27 251.776 221.27C250.376 221.27 249.136 220.96 248.056 220.34C246.996 219.7 246.186 218.91 245.626 217.97V228.8H242.896V204.56H245.626V207.59ZM256.786 212.72C256.786 211.48 256.536 210.4 256.036 209.48C255.536 208.56 254.856 207.86 253.996 207.38C253.156 206.9 252.226 206.66 251.206 206.66C250.206 206.66 249.276 206.91 248.416 207.41C247.576 207.89 246.896 208.6 246.376 209.54C245.876 210.46 245.626 211.53 245.626 212.75C245.626 213.99 245.876 215.08 246.376 216.02C246.896 216.94 247.576 217.65 248.416 218.15C249.276 218.63 250.206 218.87 251.206 218.87C252.226 218.87 253.156 218.63 253.996 218.15C254.856 217.65 255.536 216.94 256.036 216.02C256.536 215.08 256.786 213.98 256.786 212.72ZM262.149 212.72C262.149 211.04 262.489 209.57 263.169 208.31C263.849 207.03 264.779 206.04 265.959 205.34C267.159 204.64 268.489 204.29 269.949 204.29C271.389 204.29 272.639 204.6 273.699 205.22C274.759 205.84 275.549 206.62 276.069 207.56V204.56H278.829V221H276.069V217.94C275.529 218.9 274.719 219.7 273.639 220.34C272.579 220.96 271.339 221.27 269.919 221.27C268.459 221.27 267.139 220.91 265.959 220.19C264.779 219.47 263.849 218.46 263.169 217.16C262.489 215.86 262.149 214.38 262.149 212.72ZM276.069 212.75C276.069 211.51 275.819 210.43 275.319 209.51C274.819 208.59 274.139 207.89 273.279 207.41C272.439 206.91 271.509 206.66 270.489 206.66C269.469 206.66 268.539 206.9 267.699 207.38C266.859 207.86 266.189 208.56 265.689 209.48C265.189 210.4 264.939 211.48 264.939 212.72C264.939 213.98 265.189 215.08 265.689 216.02C266.189 216.94 266.859 217.65 267.699 218.15C268.539 218.63 269.469 218.87 270.489 218.87C271.509 218.87 272.439 218.63 273.279 218.15C274.139 217.65 274.819 216.94 275.319 216.02C275.819 215.08 276.069 213.99 276.069 212.75ZM286.173 207.23C286.653 206.29 287.333 205.56 288.213 205.04C289.113 204.52 290.203 204.26 291.483 204.26V207.08H290.763C287.703 207.08 286.173 208.74 286.173 212.06V221H283.443V204.56H286.173V207.23ZM293.614 212.72C293.614 211.04 293.954 209.57 294.634 208.31C295.314 207.03 296.244 206.04 297.424 205.34C298.624 204.64 299.954 204.29 301.414 204.29C302.854 204.29 304.104 204.6 305.164 205.22C306.224 205.84 307.014 206.62 307.534 207.56V204.56H310.294V221H307.534V217.94C306.994 218.9 306.184 219.7 305.104 220.34C304.044 220.96 302.804 221.27 301.384 221.27C299.924 221.27 298.604 220.91 297.424 220.19C296.244 219.47 295.314 218.46 294.634 217.16C293.954 215.86 293.614 214.38 293.614 212.72ZM307.534 212.75C307.534 211.51 307.284 210.43 306.784 209.51C306.284 208.59 305.604 207.89 304.744 207.41C303.904 206.91 302.974 206.66 301.954 206.66C300.934 206.66 300.004 206.9 299.164 207.38C298.324 207.86 297.654 208.56 297.154 209.48C296.654 210.4 296.404 211.48 296.404 212.72C296.404 213.98 296.654 215.08 297.154 216.02C297.654 216.94 298.324 217.65 299.164 218.15C300.004 218.63 300.934 218.87 301.954 218.87C302.974 218.87 303.904 218.63 304.744 218.15C305.604 217.65 306.284 216.94 306.784 216.02C307.284 215.08 307.534 213.99 307.534 212.75ZM318.238 206.81V216.5C318.238 217.3 318.408 217.87 318.748 218.21C319.088 218.53 319.678 218.69 320.518 218.69H322.528V221H320.068C318.548 221 317.408 220.65 316.648 219.95C315.888 219.25 315.508 218.1 315.508 216.5V206.81H313.378V204.56H315.508V200.42H318.238V204.56H322.528V206.81H318.238ZM327.245 201.89C326.725 201.89 326.285 201.71 325.925 201.35C325.565 200.99 325.385 200.55 325.385 200.03C325.385 199.51 325.565 199.07 325.925 198.71C326.285 198.35 326.725 198.17 327.245 198.17C327.745 198.17 328.165 198.35 328.505 198.71C328.865 199.07 329.045 199.51 329.045 200.03C329.045 200.55 328.865 200.99 328.505 201.35C328.165 201.71 327.745 201.89 327.245 201.89ZM328.565 204.56V221H325.835V204.56H328.565ZM340.388 221.27C338.848 221.27 337.448 220.92 336.188 220.22C334.948 219.52 333.968 218.53 333.248 217.25C332.548 215.95 332.198 214.45 332.198 212.75C332.198 211.07 332.558 209.59 333.278 208.31C334.018 207.01 335.018 206.02 336.278 205.34C337.538 204.64 338.948 204.29 340.508 204.29C342.068 204.29 343.478 204.64 344.738 205.34C345.998 206.02 346.988 207 347.708 208.28C348.448 209.56 348.818 211.05 348.818 212.75C348.818 214.45 348.438 215.95 347.678 217.25C346.938 218.53 345.928 219.52 344.648 220.22C343.368 220.92 341.948 221.27 340.388 221.27ZM340.388 218.87C341.368 218.87 342.288 218.64 343.148 218.18C344.008 217.72 344.698 217.03 345.218 216.11C345.758 215.19 346.028 214.07 346.028 212.75C346.028 211.43 345.768 210.31 345.248 209.39C344.728 208.47 344.048 207.79 343.208 207.35C342.368 206.89 341.458 206.66 340.478 206.66C339.478 206.66 338.558 206.89 337.718 207.35C336.898 207.79 336.238 208.47 335.738 209.39C335.238 210.31 334.988 211.43 334.988 212.75C334.988 214.09 335.228 215.22 335.708 216.14C336.208 217.06 336.868 217.75 337.688 218.21C338.508 218.65 339.408 218.87 340.388 218.87ZM360.418 204.26C362.418 204.26 364.038 204.87 365.278 206.09C366.518 207.29 367.138 209.03 367.138 211.31V221H364.438V211.7C364.438 210.06 364.028 208.81 363.208 207.95C362.388 207.07 361.268 206.63 359.848 206.63C358.408 206.63 357.258 207.08 356.398 207.98C355.558 208.88 355.138 210.19 355.138 211.91V221H352.408V204.56H355.138V206.9C355.678 206.06 356.408 205.41 357.328 204.95C358.268 204.49 359.298 204.26 360.418 204.26Z" fill="black"/>
<rect x="242.5" y="333.5" width="416" height="104" rx="24.5" fill="white" stroke="black"/>
<path d="M346.572 397L341.592 388.45H338.292V397H335.562V376.09H342.312C343.892 376.09 345.222 376.36 346.302 376.9C347.402 377.44 348.222 378.17 348.762 379.09C349.302 380.01 349.572 381.06 349.572 382.24C349.572 383.68 349.152 384.95 348.312 386.05C347.492 387.15 346.252 387.88 344.592 388.24L349.842 397H346.572ZM338.292 386.26H342.312C343.792 386.26 344.902 385.9 345.642 385.18C346.382 384.44 346.752 383.46 346.752 382.24C346.752 381 346.382 380.04 345.642 379.36C344.922 378.68 343.812 378.34 342.312 378.34H338.292V386.26ZM368.814 388.15C368.814 388.67 368.784 389.22 368.724 389.8H355.584C355.684 391.42 356.234 392.69 357.234 393.61C358.254 394.51 359.484 394.96 360.924 394.96C362.104 394.96 363.084 394.69 363.864 394.15C364.664 393.59 365.224 392.85 365.544 391.93H368.484C368.044 393.51 367.164 394.8 365.844 395.8C364.524 396.78 362.884 397.27 360.924 397.27C359.364 397.27 357.964 396.92 356.724 396.22C355.504 395.52 354.544 394.53 353.844 393.25C353.144 391.95 352.794 390.45 352.794 388.75C352.794 387.05 353.134 385.56 353.814 384.28C354.494 383 355.444 382.02 356.664 381.34C357.904 380.64 359.324 380.29 360.924 380.29C362.484 380.29 363.864 380.63 365.064 381.31C366.264 381.99 367.184 382.93 367.824 384.13C368.484 385.31 368.814 386.65 368.814 388.15ZM365.994 387.58C365.994 386.54 365.764 385.65 365.304 384.91C364.844 384.15 364.214 383.58 363.414 383.2C362.634 382.8 361.764 382.6 360.804 382.6C359.424 382.6 358.244 383.04 357.264 383.92C356.304 384.8 355.754 386.02 355.614 387.58H365.994ZM378.237 397.27C376.977 397.27 375.847 397.06 374.847 396.64C373.847 396.2 373.057 395.6 372.477 394.84C371.897 394.06 371.577 393.17 371.517 392.17H374.337C374.417 392.99 374.797 393.66 375.477 394.18C376.177 394.7 377.087 394.96 378.207 394.96C379.247 394.96 380.067 394.73 380.667 394.27C381.267 393.81 381.567 393.23 381.567 392.53C381.567 391.81 381.247 391.28 380.607 390.94C379.967 390.58 378.977 390.23 377.637 389.89C376.417 389.57 375.417 389.25 374.637 388.93C373.877 388.59 373.217 388.1 372.657 387.46C372.117 386.8 371.847 385.94 371.847 384.88C371.847 384.04 372.097 383.27 372.597 382.57C373.097 381.87 373.807 381.32 374.727 380.92C375.647 380.5 376.697 380.29 377.877 380.29C379.697 380.29 381.167 380.75 382.287 381.67C383.407 382.59 384.007 383.85 384.087 385.45H381.357C381.297 384.59 380.947 383.9 380.307 383.38C379.687 382.86 378.847 382.6 377.787 382.6C376.807 382.6 376.027 382.81 375.447 383.23C374.867 383.65 374.577 384.2 374.577 384.88C374.577 385.42 374.747 385.87 375.087 386.23C375.447 386.57 375.887 386.85 376.407 387.07C376.947 387.27 377.687 387.5 378.627 387.76C379.807 388.08 380.767 388.4 381.507 388.72C382.247 389.02 382.877 389.48 383.397 390.1C383.937 390.72 384.217 391.53 384.237 392.53C384.237 393.43 383.987 394.24 383.487 394.96C382.987 395.68 382.277 396.25 381.357 396.67C380.457 397.07 379.417 397.27 378.237 397.27ZM402.671 380.56V397H399.941V394.57C399.421 395.41 398.691 396.07 397.751 396.55C396.831 397.01 395.811 397.24 394.691 397.24C393.411 397.24 392.261 396.98 391.241 396.46C390.221 395.92 389.411 395.12 388.811 394.06C388.231 393 387.941 391.71 387.941 390.19V380.56H390.641V389.83C390.641 391.45 391.051 392.7 391.871 393.58C392.691 394.44 393.811 394.87 395.231 394.87C396.691 394.87 397.841 394.42 398.681 393.52C399.521 392.62 399.941 391.31 399.941 389.59V380.56H402.671ZM427.051 380.26C428.331 380.26 429.471 380.53 430.471 381.07C431.471 381.59 432.261 382.38 432.841 383.44C433.421 384.5 433.711 385.79 433.711 387.31V397H431.011V387.7C431.011 386.06 430.601 384.81 429.781 383.95C428.981 383.07 427.891 382.63 426.511 382.63C425.091 382.63 423.961 383.09 423.121 384.01C422.281 384.91 421.861 386.22 421.861 387.94V397H419.161V387.7C419.161 386.06 418.751 384.81 417.931 383.95C417.131 383.07 416.041 382.63 414.661 382.63C413.241 382.63 412.111 383.09 411.271 384.01C410.431 384.91 410.011 386.22 410.011 387.94V397H407.281V380.56H410.011V382.93C410.551 382.07 411.271 381.41 412.171 380.95C413.091 380.49 414.101 380.26 415.201 380.26C416.581 380.26 417.801 380.57 418.861 381.19C419.921 381.81 420.711 382.72 421.231 383.92C421.691 382.76 422.451 381.86 423.511 381.22C424.571 380.58 425.751 380.26 427.051 380.26ZM453.189 388.15C453.189 388.67 453.159 389.22 453.099 389.8H439.959C440.059 391.42 440.609 392.69 441.609 393.61C442.629 394.51 443.859 394.96 445.299 394.96C446.479 394.96 447.459 394.69 448.239 394.15C449.039 393.59 449.599 392.85 449.919 391.93H452.859C452.419 393.51 451.539 394.8 450.219 395.8C448.899 396.78 447.259 397.27 445.299 397.27C443.739 397.27 442.339 396.92 441.099 396.22C439.879 395.52 438.919 394.53 438.219 393.25C437.519 391.95 437.169 390.45 437.169 388.75C437.169 387.05 437.509 385.56 438.189 384.28C438.869 383 439.819 382.02 441.039 381.34C442.279 380.64 443.699 380.29 445.299 380.29C446.859 380.29 448.239 380.63 449.439 381.31C450.639 381.99 451.559 382.93 452.199 384.13C452.859 385.31 453.189 386.65 453.189 388.15ZM450.369 387.58C450.369 386.54 450.139 385.65 449.679 384.91C449.219 384.15 448.589 383.58 447.789 383.2C447.009 382.8 446.139 382.6 445.179 382.6C443.799 382.6 442.619 383.04 441.639 383.92C440.679 384.8 440.129 386.02 439.989 387.58H450.369ZM475.8 397L470.82 388.45H467.52V397H464.79V376.09H471.54C473.12 376.09 474.45 376.36 475.53 376.9C476.63 377.44 477.45 378.17 477.99 379.09C478.53 380.01 478.8 381.06 478.8 382.24C478.8 383.68 478.38 384.95 477.54 386.05C476.72 387.15 475.48 387.88 473.82 388.24L479.07 397H475.8ZM467.52 386.26H471.54C473.02 386.26 474.13 385.9 474.87 385.18C475.61 384.44 475.98 383.46 475.98 382.24C475.98 381 475.61 380.04 474.87 379.36C474.15 378.68 473.04 378.34 471.54 378.34H467.52V386.26ZM498.042 388.15C498.042 388.67 498.012 389.22 497.952 389.8H484.812C484.912 391.42 485.462 392.69 486.462 393.61C487.482 394.51 488.712 394.96 490.152 394.96C491.332 394.96 492.312 394.69 493.092 394.15C493.892 393.59 494.452 392.85 494.772 391.93H497.712C497.272 393.51 496.392 394.8 495.072 395.8C493.752 396.78 492.112 397.27 490.152 397.27C488.592 397.27 487.192 396.92 485.952 396.22C484.732 395.52 483.772 394.53 483.072 393.25C482.372 391.95 482.022 390.45 482.022 388.75C482.022 387.05 482.362 385.56 483.042 384.28C483.722 383 484.672 382.02 485.892 381.34C487.132 380.64 488.552 380.29 490.152 380.29C491.712 380.29 493.092 380.63 494.292 381.31C495.492 381.99 496.412 382.93 497.052 384.13C497.712 385.31 498.042 386.65 498.042 388.15ZM495.222 387.58C495.222 386.54 494.992 385.65 494.532 384.91C494.072 384.15 493.442 383.58 492.642 383.2C491.862 382.8 490.992 382.6 490.032 382.6C488.652 382.6 487.472 383.04 486.492 383.92C485.532 384.8 484.982 386.02 484.842 387.58H495.222ZM507.766 394.48L512.866 380.56H515.776L509.326 397H506.146L499.696 380.56H502.636L507.766 394.48ZM519.872 377.89C519.352 377.89 518.912 377.71 518.552 377.35C518.192 376.99 518.012 376.55 518.012 376.03C518.012 375.51 518.192 375.07 518.552 374.71C518.912 374.35 519.352 374.17 519.872 374.17C520.372 374.17 520.792 374.35 521.132 374.71C521.492 375.07 521.672 375.51 521.672 376.03C521.672 376.55 521.492 376.99 521.132 377.35C520.792 377.71 520.372 377.89 519.872 377.89ZM521.192 380.56V397H518.462V380.56H521.192ZM540.845 388.15C540.845 388.67 540.815 389.22 540.755 389.8H527.615C527.715 391.42 528.265 392.69 529.265 393.61C530.285 394.51 531.515 394.96 532.955 394.96C534.135 394.96 535.115 394.69 535.895 394.15C536.695 393.59 537.255 392.85 537.575 391.93H540.515C540.075 393.51 539.195 394.8 537.875 395.8C536.555 396.78 534.915 397.27 532.955 397.27C531.395 397.27 529.995 396.92 528.755 396.22C527.535 395.52 526.575 394.53 525.875 393.25C525.175 391.95 524.825 390.45 524.825 388.75C524.825 387.05 525.165 385.56 525.845 384.28C526.525 383 527.475 382.02 528.695 381.34C529.935 380.64 531.355 380.29 532.955 380.29C534.515 380.29 535.895 380.63 537.095 381.31C538.295 381.99 539.215 382.93 539.855 384.13C540.515 385.31 540.845 386.65 540.845 388.15ZM538.025 387.58C538.025 386.54 537.795 385.65 537.335 384.91C536.875 384.15 536.245 383.58 535.445 383.2C534.665 382.8 533.795 382.6 532.835 382.6C531.455 382.6 530.275 383.04 529.295 383.92C528.335 384.8 527.785 386.02 527.645 387.58H538.025ZM566.349 380.56L561.219 397H558.399L554.439 383.95L550.479 397H547.659L542.499 380.56H545.289L549.069 394.36L553.149 380.56H555.939L559.929 394.39L563.649 380.56H566.349Z" fill="black"/>
<rect x="742.5" y="333.5" width="416" height="104" rx="24.5" fill="white" stroke="black"/>
<path d="M855.907 376.09V397H853.177V376.09H855.907ZM868.57 380.26C870.57 380.26 872.19 380.87 873.43 382.09C874.67 383.29 875.29 385.03 875.29 387.31V397H872.59V387.7C872.59 386.06 872.18 384.81 871.36 383.95C870.54 383.07 869.42 382.63 868 382.63C866.56 382.63 865.41 383.08 864.55 383.98C863.71 384.88 863.29 386.19 863.29 387.91V397H860.56V380.56H863.29V382.9C863.83 382.06 864.56 381.41 865.48 380.95C866.42 380.49 867.45 380.26 868.57 380.26ZM883.079 382.81V392.5C883.079 393.3 883.249 393.87 883.589 394.21C883.929 394.53 884.519 394.69 885.359 394.69H887.369V397H884.909C883.389 397 882.249 396.65 881.489 395.95C880.729 395.25 880.349 394.1 880.349 392.5V382.81H878.219V380.56H880.349V376.42H883.079V380.56H887.369V382.81H883.079ZM905.677 388.15C905.677 388.67 905.647 389.22 905.587 389.8H892.447C892.547 391.42 893.097 392.69 894.097 393.61C895.117 394.51 896.347 394.96 897.787 394.96C898.967 394.96 899.947 394.69 900.727 394.15C901.527 393.59 902.087 392.85 902.407 391.93H905.347C904.907 393.51 904.027 394.8 902.707 395.8C901.387 396.78 899.747 397.27 897.787 397.27C896.227 397.27 894.827 396.92 893.587 396.22C892.367 395.52 891.407 394.53 890.707 393.25C890.007 391.95 889.657 390.45 889.657 388.75C889.657 387.05 889.997 385.56 890.677 384.28C891.357 383 892.307 382.02 893.527 381.34C894.767 380.64 896.187 380.29 897.787 380.29C899.347 380.29 900.727 380.63 901.927 381.31C903.127 381.99 904.047 382.93 904.687 384.13C905.347 385.31 905.677 386.65 905.677 388.15ZM902.857 387.58C902.857 386.54 902.627 385.65 902.167 384.91C901.707 384.15 901.077 383.58 900.277 383.2C899.497 382.8 898.627 382.6 897.667 382.6C896.287 382.6 895.107 383.04 894.127 383.92C893.167 384.8 892.617 386.02 892.477 387.58H902.857ZM912.011 383.23C912.491 382.29 913.171 381.56 914.051 381.04C914.951 380.52 916.041 380.26 917.321 380.26V383.08H916.601C913.541 383.08 912.011 384.74 912.011 388.06V397H909.281V380.56H912.011V383.23ZM926.592 394.48L931.692 380.56H934.602L928.152 397H924.972L918.522 380.56H921.462L926.592 394.48ZM938.699 377.89C938.179 377.89 937.739 377.71 937.379 377.35C937.019 376.99 936.839 376.55 936.839 376.03C936.839 375.51 937.019 375.07 937.379 374.71C937.739 374.35 938.179 374.17 938.699 374.17C939.199 374.17 939.619 374.35 939.959 374.71C940.319 375.07 940.499 375.51 940.499 376.03C940.499 376.55 940.319 376.99 939.959 377.35C939.619 377.71 939.199 377.89 938.699 377.89ZM940.019 380.56V397H937.289V380.56H940.019ZM959.671 388.15C959.671 388.67 959.641 389.22 959.581 389.8H946.441C946.541 391.42 947.091 392.69 948.091 393.61C949.111 394.51 950.341 394.96 951.781 394.96C952.961 394.96 953.941 394.69 954.721 394.15C955.521 393.59 956.081 392.85 956.401 391.93H959.341C958.901 393.51 958.021 394.8 956.701 395.8C955.381 396.78 953.741 397.27 951.781 397.27C950.221 397.27 948.821 396.92 947.581 396.22C946.361 395.52 945.401 394.53 944.701 393.25C944.001 391.95 943.651 390.45 943.651 388.75C943.651 387.05 943.991 385.56 944.671 384.28C945.351 383 946.301 382.02 947.521 381.34C948.761 380.64 950.181 380.29 951.781 380.29C953.341 380.29 954.721 380.63 955.921 381.31C957.121 381.99 958.041 382.93 958.681 384.13C959.341 385.31 959.671 386.65 959.671 388.15ZM956.851 387.58C956.851 386.54 956.621 385.65 956.161 384.91C955.701 384.15 955.071 383.58 954.271 383.2C953.491 382.8 952.621 382.6 951.661 382.6C950.281 382.6 949.101 383.04 948.121 383.92C947.161 384.8 946.611 386.02 946.471 387.58H956.851ZM985.175 380.56L980.045 397H977.225L973.265 383.95L969.305 397H966.485L961.325 380.56H964.115L967.895 394.36L971.975 380.56H974.765L978.755 394.39L982.475 380.56H985.175ZM1008.75 376.09V378.31H1003.05V397H1000.32V378.31H994.592V376.09H1008.75ZM1013.52 377.89C1013 377.89 1012.56 377.71 1012.2 377.35C1011.84 376.99 1011.66 376.55 1011.66 376.03C1011.66 375.51 1011.84 375.07 1012.2 374.71C1012.56 374.35 1013 374.17 1013.52 374.17C1014.02 374.17 1014.44 374.35 1014.78 374.71C1015.14 375.07 1015.32 375.51 1015.32 376.03C1015.32 376.55 1015.14 376.99 1014.78 377.35C1014.44 377.71 1014.02 377.89 1013.52 377.89ZM1014.84 380.56V397H1012.11V380.56H1014.84ZM1022.23 383.59C1022.77 382.65 1023.57 381.87 1024.63 381.25C1025.71 380.61 1026.96 380.29 1028.38 380.29C1029.84 380.29 1031.16 380.64 1032.34 381.34C1033.54 382.04 1034.48 383.03 1035.16 384.31C1035.84 385.57 1036.18 387.04 1036.18 388.72C1036.18 390.38 1035.84 391.86 1035.16 393.16C1034.48 394.46 1033.54 395.47 1032.34 396.19C1031.16 396.91 1029.84 397.27 1028.38 397.27C1026.98 397.27 1025.74 396.96 1024.66 396.34C1023.6 395.7 1022.79 394.91 1022.23 393.97V404.8H1019.5V380.56H1022.23V383.59ZM1033.39 388.72C1033.39 387.48 1033.14 386.4 1032.64 385.48C1032.14 384.56 1031.46 383.86 1030.6 383.38C1029.76 382.9 1028.83 382.66 1027.81 382.66C1026.81 382.66 1025.88 382.91 1025.02 383.41C1024.18 383.89 1023.5 384.6 1022.98 385.54C1022.48 386.46 1022.23 387.53 1022.23 388.75C1022.23 389.99 1022.48 391.08 1022.98 392.02C1023.5 392.94 1024.18 393.65 1025.02 394.15C1025.88 394.63 1026.81 394.87 1027.81 394.87C1028.83 394.87 1029.76 394.63 1030.6 394.15C1031.46 393.65 1032.14 392.94 1032.64 392.02C1033.14 391.08 1033.39 389.98 1033.39 388.72ZM1045.59 397.27C1044.33 397.27 1043.2 397.06 1042.2 396.64C1041.2 396.2 1040.41 395.6 1039.83 394.84C1039.25 394.06 1038.93 393.17 1038.87 392.17H1041.69C1041.77 392.99 1042.15 393.66 1042.83 394.18C1043.53 394.7 1044.44 394.96 1045.56 394.96C1046.6 394.96 1047.42 394.73 1048.02 394.27C1048.62 393.81 1048.92 393.23 1048.92 392.53C1048.92 391.81 1048.6 391.28 1047.96 390.94C1047.32 390.58 1046.33 390.23 1044.99 389.89C1043.77 389.57 1042.77 389.25 1041.99 388.93C1041.23 388.59 1040.57 388.1 1040.01 387.46C1039.47 386.8 1039.2 385.94 1039.2 384.88C1039.2 384.04 1039.45 383.27 1039.95 382.57C1040.45 381.87 1041.16 381.32 1042.08 380.92C1043 380.5 1044.05 380.29 1045.23 380.29C1047.05 380.29 1048.52 380.75 1049.64 381.67C1050.76 382.59 1051.36 383.85 1051.44 385.45H1048.71C1048.65 384.59 1048.3 383.9 1047.66 383.38C1047.04 382.86 1046.2 382.6 1045.14 382.6C1044.16 382.6 1043.38 382.81 1042.8 383.23C1042.22 383.65 1041.93 384.2 1041.93 384.88C1041.93 385.42 1042.1 385.87 1042.44 386.23C1042.8 386.57 1043.24 386.85 1043.76 387.07C1044.3 387.27 1045.04 387.5 1045.98 387.76C1047.16 388.08 1048.12 388.4 1048.86 388.72C1049.6 389.02 1050.23 389.48 1050.75 390.1C1051.29 390.72 1051.57 391.53 1051.59 392.53C1051.59 393.43 1051.34 394.24 1050.84 394.96C1050.34 395.68 1049.63 396.25 1048.71 396.67C1047.81 397.07 1046.77 397.27 1045.59 397.27Z" fill="black"/>
<rect x="956.5" y="157.5" width="416" height="104" rx="24.5" fill="white" stroke="black"/>
<path d="M1087.9 185.21C1087.9 186.95 1087.3 188.4 1086.1 189.56C1084.92 190.7 1083.11 191.27 1080.67 191.27H1076.65V200H1073.92V179.09H1080.67C1083.03 179.09 1084.82 179.66 1086.04 180.8C1087.28 181.94 1087.9 183.41 1087.9 185.21ZM1080.67 189.02C1082.19 189.02 1083.31 188.69 1084.03 188.03C1084.75 187.37 1085.11 186.43 1085.11 185.21C1085.11 182.63 1083.63 181.34 1080.67 181.34H1076.65V189.02H1080.67ZM1106.29 191.15C1106.29 191.67 1106.26 192.22 1106.2 192.8H1093.06C1093.16 194.42 1093.71 195.69 1094.71 196.61C1095.73 197.51 1096.96 197.96 1098.4 197.96C1099.58 197.96 1100.56 197.69 1101.34 197.15C1102.14 196.59 1102.7 195.85 1103.02 194.93H1105.96C1105.52 196.51 1104.64 197.8 1103.32 198.8C1102 199.78 1100.36 200.27 1098.4 200.27C1096.84 200.27 1095.44 199.92 1094.2 199.22C1092.98 198.52 1092.02 197.53 1091.32 196.25C1090.62 194.95 1090.27 193.45 1090.27 191.75C1090.27 190.05 1090.61 188.56 1091.29 187.28C1091.97 186 1092.92 185.02 1094.14 184.34C1095.38 183.64 1096.8 183.29 1098.4 183.29C1099.96 183.29 1101.34 183.63 1102.54 184.31C1103.74 184.99 1104.66 185.93 1105.3 187.13C1105.96 188.31 1106.29 189.65 1106.29 191.15ZM1103.47 190.58C1103.47 189.54 1103.24 188.65 1102.78 187.91C1102.32 187.15 1101.69 186.58 1100.89 186.2C1100.11 185.8 1099.24 185.6 1098.28 185.6C1096.9 185.6 1095.72 186.04 1094.74 186.92C1093.78 187.8 1093.23 189.02 1093.09 190.58H1103.47ZM1112.62 186.23C1113.1 185.29 1113.78 184.56 1114.66 184.04C1115.56 183.52 1116.65 183.26 1117.93 183.26V186.08H1117.21C1114.15 186.08 1112.62 187.74 1112.62 191.06V200H1109.89V183.56H1112.62V186.23ZM1126.9 200.27C1125.64 200.27 1124.51 200.06 1123.51 199.64C1122.51 199.2 1121.72 198.6 1121.14 197.84C1120.56 197.06 1120.24 196.17 1120.18 195.17H1123C1123.08 195.99 1123.46 196.66 1124.14 197.18C1124.84 197.7 1125.75 197.96 1126.87 197.96C1127.91 197.96 1128.73 197.73 1129.33 197.27C1129.93 196.81 1130.23 196.23 1130.23 195.53C1130.23 194.81 1129.91 194.28 1129.27 193.94C1128.63 193.58 1127.64 193.23 1126.3 192.89C1125.08 192.57 1124.08 192.25 1123.3 191.93C1122.54 191.59 1121.88 191.1 1121.32 190.46C1120.78 189.8 1120.51 188.94 1120.51 187.88C1120.51 187.04 1120.76 186.27 1121.26 185.57C1121.76 184.87 1122.47 184.32 1123.39 183.92C1124.31 183.5 1125.36 183.29 1126.54 183.29C1128.36 183.29 1129.83 183.75 1130.95 184.67C1132.07 185.59 1132.67 186.85 1132.75 188.45H1130.02C1129.96 187.59 1129.61 186.9 1128.97 186.38C1128.35 185.86 1127.51 185.6 1126.45 185.6C1125.47 185.6 1124.69 185.81 1124.11 186.23C1123.53 186.65 1123.24 187.2 1123.24 187.88C1123.24 188.42 1123.41 188.87 1123.75 189.23C1124.11 189.57 1124.55 189.85 1125.07 190.07C1125.61 190.27 1126.35 190.5 1127.29 190.76C1128.47 191.08 1129.43 191.4 1130.17 191.72C1130.91 192.02 1131.54 192.48 1132.06 193.1C1132.6 193.72 1132.88 194.53 1132.9 195.53C1132.9 196.43 1132.65 197.24 1132.15 197.96C1131.65 198.68 1130.94 199.25 1130.02 199.67C1129.12 200.07 1128.08 200.27 1126.9 200.27ZM1143.93 200.27C1142.39 200.27 1140.99 199.92 1139.73 199.22C1138.49 198.52 1137.51 197.53 1136.79 196.25C1136.09 194.95 1135.74 193.45 1135.74 191.75C1135.74 190.07 1136.1 188.59 1136.82 187.31C1137.56 186.01 1138.56 185.02 1139.82 184.34C1141.08 183.64 1142.49 183.29 1144.05 183.29C1145.61 183.29 1147.02 183.64 1148.28 184.34C1149.54 185.02 1150.53 186 1151.25 187.28C1151.99 188.56 1152.36 190.05 1152.36 191.75C1152.36 193.45 1151.98 194.95 1151.22 196.25C1150.48 197.53 1149.47 198.52 1148.19 199.22C1146.91 199.92 1145.49 200.27 1143.93 200.27ZM1143.93 197.87C1144.91 197.87 1145.83 197.64 1146.69 197.18C1147.55 196.72 1148.24 196.03 1148.76 195.11C1149.3 194.19 1149.57 193.07 1149.57 191.75C1149.57 190.43 1149.31 189.31 1148.79 188.39C1148.27 187.47 1147.59 186.79 1146.75 186.35C1145.91 185.89 1145 185.66 1144.02 185.66C1143.02 185.66 1142.1 185.89 1141.26 186.35C1140.44 186.79 1139.78 187.47 1139.28 188.39C1138.78 189.31 1138.53 190.43 1138.53 191.75C1138.53 193.09 1138.77 194.22 1139.25 195.14C1139.75 196.06 1140.41 196.75 1141.23 197.21C1142.05 197.65 1142.95 197.87 1143.93 197.87ZM1163.96 183.26C1165.96 183.26 1167.58 183.87 1168.82 185.09C1170.06 186.29 1170.68 188.03 1170.68 190.31V200H1167.98V190.7C1167.98 189.06 1167.57 187.81 1166.75 186.95C1165.93 186.07 1164.81 185.63 1163.39 185.63C1161.95 185.63 1160.8 186.08 1159.94 186.98C1159.1 187.88 1158.68 189.19 1158.68 190.91V200H1155.95V183.56H1158.68V185.9C1159.22 185.06 1159.95 184.41 1160.87 183.95C1161.81 183.49 1162.84 183.26 1163.96 183.26ZM1174.12 191.72C1174.12 190.04 1174.46 188.57 1175.14 187.31C1175.82 186.03 1176.75 185.04 1177.93 184.34C1179.13 183.64 1180.46 183.29 1181.92 183.29C1183.36 183.29 1184.61 183.6 1185.67 184.22C1186.73 184.84 1187.52 185.62 1188.04 186.56V183.56H1190.8V200H1188.04V196.94C1187.5 197.9 1186.69 198.7 1185.61 199.34C1184.55 199.96 1183.31 200.27 1181.89 200.27C1180.43 200.27 1179.11 199.91 1177.93 199.19C1176.75 198.47 1175.82 197.46 1175.14 196.16C1174.46 194.86 1174.12 193.38 1174.12 191.72ZM1188.04 191.75C1188.04 190.51 1187.79 189.43 1187.29 188.51C1186.79 187.59 1186.11 186.89 1185.25 186.41C1184.41 185.91 1183.48 185.66 1182.46 185.66C1181.44 185.66 1180.51 185.9 1179.67 186.38C1178.83 186.86 1178.16 187.56 1177.66 188.48C1177.16 189.4 1176.91 190.48 1176.91 191.72C1176.91 192.98 1177.16 194.08 1177.66 195.02C1178.16 195.94 1178.83 196.65 1179.67 197.15C1180.51 197.63 1181.44 197.87 1182.46 197.87C1183.48 197.87 1184.41 197.63 1185.25 197.15C1186.11 196.65 1186.79 195.94 1187.29 195.02C1187.79 194.08 1188.04 192.99 1188.04 191.75ZM1198.14 177.8V200H1195.41V177.8H1198.14ZM1204.2 180.89C1203.68 180.89 1203.24 180.71 1202.88 180.35C1202.52 179.99 1202.34 179.55 1202.34 179.03C1202.34 178.51 1202.52 178.07 1202.88 177.71C1203.24 177.35 1203.68 177.17 1204.2 177.17C1204.7 177.17 1205.12 177.35 1205.46 177.71C1205.82 178.07 1206 178.51 1206 179.03C1206 179.55 1205.82 179.99 1205.46 180.35C1205.12 180.71 1204.7 180.89 1204.2 180.89ZM1205.52 183.56V200H1202.79V183.56H1205.52ZM1212.22 197.75H1220.29V200H1209.1V197.75L1217.08 185.78H1209.16V183.56H1220.23V185.78L1212.22 197.75ZM1238.83 191.15C1238.83 191.67 1238.8 192.22 1238.74 192.8H1225.6C1225.7 194.42 1226.25 195.69 1227.25 196.61C1228.27 197.51 1229.5 197.96 1230.94 197.96C1232.12 197.96 1233.1 197.69 1233.88 197.15C1234.68 196.59 1235.24 195.85 1235.56 194.93H1238.5C1238.06 196.51 1237.18 197.8 1235.86 198.8C1234.54 199.78 1232.9 200.27 1230.94 200.27C1229.38 200.27 1227.98 199.92 1226.74 199.22C1225.52 198.52 1224.56 197.53 1223.86 196.25C1223.16 194.95 1222.81 193.45 1222.81 191.75C1222.81 190.05 1223.15 188.56 1223.83 187.28C1224.51 186 1225.46 185.02 1226.68 184.34C1227.92 183.64 1229.34 183.29 1230.94 183.29C1232.5 183.29 1233.88 183.63 1235.08 184.31C1236.28 184.99 1237.2 185.93 1237.84 187.13C1238.5 188.31 1238.83 189.65 1238.83 191.15ZM1236.01 190.58C1236.01 189.54 1235.78 188.65 1235.32 187.91C1234.86 187.15 1234.23 186.58 1233.43 186.2C1232.65 185.8 1231.78 185.6 1230.82 185.6C1229.44 185.6 1228.26 186.04 1227.28 186.92C1226.32 187.8 1225.77 189.02 1225.63 190.58H1236.01ZM1241.41 191.72C1241.41 190.04 1241.75 188.57 1242.43 187.31C1243.11 186.03 1244.04 185.04 1245.22 184.34C1246.42 183.64 1247.76 183.29 1249.24 183.29C1250.52 183.29 1251.71 183.59 1252.81 184.19C1253.91 184.77 1254.75 185.54 1255.33 186.5V177.8H1258.09V200H1255.33V196.91C1254.79 197.89 1253.99 198.7 1252.93 199.34C1251.87 199.96 1250.63 200.27 1249.21 200.27C1247.75 200.27 1246.42 199.91 1245.22 199.19C1244.04 198.47 1243.11 197.46 1242.43 196.16C1241.75 194.86 1241.41 193.38 1241.41 191.72ZM1255.33 191.75C1255.33 190.51 1255.08 189.43 1254.58 188.51C1254.08 187.59 1253.4 186.89 1252.54 186.41C1251.7 185.91 1250.77 185.66 1249.75 185.66C1248.73 185.66 1247.8 185.9 1246.96 186.38C1246.12 186.86 1245.45 187.56 1244.95 188.48C1244.45 189.4 1244.2 190.48 1244.2 191.72C1244.2 192.98 1244.45 194.08 1244.95 195.02C1245.45 195.94 1246.12 196.65 1246.96 197.15C1247.8 197.63 1248.73 197.87 1249.75 197.87C1250.77 197.87 1251.7 197.63 1252.54 197.15C1253.4 196.65 1254.08 195.94 1254.58 195.02C1255.08 194.08 1255.33 192.99 1255.33 191.75ZM1106.73 224.09V226.31H1097.64V233.36H1105.02V235.58H1097.64V245H1094.91V224.09H1106.73ZM1125.02 236.15C1125.02 236.67 1124.99 237.22 1124.93 237.8H1111.79C1111.89 239.42 1112.44 240.69 1113.44 241.61C1114.46 242.51 1115.69 242.96 1117.13 242.96C1118.31 242.96 1119.29 242.69 1120.07 242.15C1120.87 241.59 1121.43 240.85 1121.75 239.93H1124.69C1124.25 241.51 1123.37 242.8 1122.05 243.8C1120.73 244.78 1119.09 245.27 1117.13 245.27C1115.57 245.27 1114.17 244.92 1112.93 244.22C1111.71 243.52 1110.75 242.53 1110.05 241.25C1109.35 239.95 1109 238.45 1109 236.75C1109 235.05 1109.34 233.56 1110.02 232.28C1110.7 231 1111.65 230.02 1112.87 229.34C1114.11 228.64 1115.53 228.29 1117.13 228.29C1118.69 228.29 1120.07 228.63 1121.27 229.31C1122.47 229.99 1123.39 230.93 1124.03 232.13C1124.69 233.31 1125.02 234.65 1125.02 236.15ZM1122.2 235.58C1122.2 234.54 1121.97 233.65 1121.51 232.91C1121.05 232.15 1120.42 231.58 1119.62 231.2C1118.84 230.8 1117.97 230.6 1117.01 230.6C1115.63 230.6 1114.45 231.04 1113.47 231.92C1112.51 232.8 1111.96 234.02 1111.82 235.58H1122.2ZM1143.63 236.15C1143.63 236.67 1143.6 237.22 1143.54 237.8H1130.4C1130.5 239.42 1131.05 240.69 1132.05 241.61C1133.07 242.51 1134.3 242.96 1135.74 242.96C1136.92 242.96 1137.9 242.69 1138.68 242.15C1139.48 241.59 1140.04 240.85 1140.36 239.93H1143.3C1142.86 241.51 1141.98 242.8 1140.66 243.8C1139.34 244.78 1137.7 245.27 1135.74 245.27C1134.18 245.27 1132.78 244.92 1131.54 244.22C1130.32 243.52 1129.36 242.53 1128.66 241.25C1127.96 239.95 1127.61 238.45 1127.61 236.75C1127.61 235.05 1127.95 233.56 1128.63 232.28C1129.31 231 1130.26 230.02 1131.48 229.34C1132.72 228.64 1134.14 228.29 1135.74 228.29C1137.3 228.29 1138.68 228.63 1139.88 229.31C1141.08 229.99 1142 230.93 1142.64 232.13C1143.3 233.31 1143.63 234.65 1143.63 236.15ZM1140.81 235.58C1140.81 234.54 1140.58 233.65 1140.12 232.91C1139.66 232.15 1139.03 231.58 1138.23 231.2C1137.45 230.8 1136.58 230.6 1135.62 230.6C1134.24 230.6 1133.06 231.04 1132.08 231.92C1131.12 232.8 1130.57 234.02 1130.43 235.58H1140.81ZM1146.21 236.72C1146.21 235.04 1146.55 233.57 1147.23 232.31C1147.91 231.03 1148.84 230.04 1150.02 229.34C1151.22 228.64 1152.56 228.29 1154.04 228.29C1155.32 228.29 1156.51 228.59 1157.61 229.19C1158.71 229.77 1159.55 230.54 1160.13 231.5V222.8H1162.89V245H1160.13V241.91C1159.59 242.89 1158.79 243.7 1157.73 244.34C1156.67 244.96 1155.43 245.27 1154.01 245.27C1152.55 245.27 1151.22 244.91 1150.02 244.19C1148.84 243.47 1147.91 242.46 1147.23 241.16C1146.55 239.86 1146.21 238.38 1146.21 236.72ZM1160.13 236.75C1160.13 235.51 1159.88 234.43 1159.38 233.51C1158.88 232.59 1158.2 231.89 1157.34 231.41C1156.5 230.91 1155.57 230.66 1154.55 230.66C1153.53 230.66 1152.6 230.9 1151.76 231.38C1150.92 231.86 1150.25 232.56 1149.75 233.48C1149.25 234.4 1149 235.48 1149 236.72C1149 237.98 1149.25 239.08 1149.75 240.02C1150.25 240.94 1150.92 241.65 1151.76 242.15C1152.6 242.63 1153.53 242.87 1154.55 242.87C1155.57 242.87 1156.5 242.63 1157.34 242.15C1158.2 241.65 1158.88 240.94 1159.38 240.02C1159.88 239.08 1160.13 237.99 1160.13 236.75ZM1170.23 231.62C1170.79 230.64 1171.61 229.84 1172.69 229.22C1173.77 228.6 1175 228.29 1176.38 228.29C1177.86 228.29 1179.19 228.64 1180.37 229.34C1181.55 230.04 1182.48 231.03 1183.16 232.31C1183.84 233.57 1184.18 235.04 1184.18 236.72C1184.18 238.38 1183.84 239.86 1183.16 241.16C1182.48 242.46 1181.54 243.47 1180.34 244.19C1179.16 244.91 1177.84 245.27 1176.38 245.27C1174.96 245.27 1173.71 244.96 1172.63 244.34C1171.57 243.72 1170.77 242.93 1170.23 241.97V245H1167.5V222.8H1170.23V231.62ZM1181.39 236.72C1181.39 235.48 1181.14 234.4 1180.64 233.48C1180.14 232.56 1179.46 231.86 1178.6 231.38C1177.76 230.9 1176.83 230.66 1175.81 230.66C1174.81 230.66 1173.88 230.91 1173.02 231.41C1172.18 231.89 1171.5 232.6 1170.98 233.54C1170.48 234.46 1170.23 235.53 1170.23 236.75C1170.23 237.99 1170.48 239.08 1170.98 240.02C1171.5 240.94 1172.18 241.65 1173.02 242.15C1173.88 242.63 1174.81 242.87 1175.81 242.87C1176.83 242.87 1177.76 242.63 1178.6 242.15C1179.46 241.65 1180.14 240.94 1180.64 240.02C1181.14 239.08 1181.39 237.98 1181.39 236.72ZM1186.76 236.72C1186.76 235.04 1187.1 233.57 1187.78 232.31C1188.46 231.03 1189.39 230.04 1190.57 229.34C1191.77 228.64 1193.1 228.29 1194.56 228.29C1196 228.29 1197.25 228.6 1198.31 229.22C1199.37 229.84 1200.16 230.62 1200.68 231.56V228.56H1203.44V245H1200.68V241.94C1200.14 242.9 1199.33 243.7 1198.25 244.34C1197.19 244.96 1195.95 245.27 1194.53 245.27C1193.07 245.27 1191.75 244.91 1190.57 244.19C1189.39 243.47 1188.46 242.46 1187.78 241.16C1187.1 239.86 1186.76 238.38 1186.76 236.72ZM1200.68 236.75C1200.68 235.51 1200.43 234.43 1199.93 233.51C1199.43 232.59 1198.75 231.89 1197.89 231.41C1197.05 230.91 1196.12 230.66 1195.1 230.66C1194.08 230.66 1193.15 230.9 1192.31 231.38C1191.47 231.86 1190.8 232.56 1190.3 233.48C1189.8 234.4 1189.55 235.48 1189.55 236.72C1189.55 237.98 1189.8 239.08 1190.3 240.02C1190.8 240.94 1191.47 241.65 1192.31 242.15C1193.15 242.63 1194.08 242.87 1195.1 242.87C1196.12 242.87 1197.05 242.63 1197.89 242.15C1198.75 241.65 1199.43 240.94 1199.93 240.02C1200.43 239.08 1200.68 237.99 1200.68 236.75ZM1207.03 236.75C1207.03 235.05 1207.37 233.57 1208.05 232.31C1208.73 231.03 1209.67 230.04 1210.87 229.34C1212.09 228.64 1213.48 228.29 1215.04 228.29C1217.06 228.29 1218.72 228.78 1220.02 229.76C1221.34 230.74 1222.21 232.1 1222.63 233.84H1219.69C1219.41 232.84 1218.86 232.05 1218.04 231.47C1217.24 230.89 1216.24 230.6 1215.04 230.6C1213.48 230.6 1212.22 231.14 1211.26 232.22C1210.3 233.28 1209.82 234.79 1209.82 236.75C1209.82 238.73 1210.3 240.26 1211.26 241.34C1212.22 242.42 1213.48 242.96 1215.04 242.96C1216.24 242.96 1217.24 242.68 1218.04 242.12C1218.84 241.56 1219.39 240.76 1219.69 239.72H1222.63C1222.19 241.4 1221.31 242.75 1219.99 243.77C1218.67 244.77 1217.02 245.27 1215.04 245.27C1213.48 245.27 1212.09 244.92 1210.87 244.22C1209.67 243.52 1208.73 242.53 1208.05 241.25C1207.37 239.97 1207.03 238.47 1207.03 236.75ZM1235.45 245L1229 237.74V245H1226.27V222.8H1229V235.85L1235.33 228.56H1239.14L1231.4 236.75L1239.17 245H1235.45Z" fill="black"/>
<rect x="479.5" y="157.5" width="416" height="104" rx="24.5" fill="white" stroke="black"/>
<path d="M595.985 200.24V221H593.255V205.52L586.355 221H584.435L577.505 205.49V221H574.775V200.24H577.715L585.395 217.4L593.075 200.24H595.985ZM607.785 221.27C606.245 221.27 604.845 220.92 603.585 220.22C602.345 219.52 601.365 218.53 600.645 217.25C599.945 215.95 599.595 214.45 599.595 212.75C599.595 211.07 599.955 209.59 600.675 208.31C601.415 207.01 602.415 206.02 603.675 205.34C604.935 204.64 606.345 204.29 607.905 204.29C609.465 204.29 610.875 204.64 612.135 205.34C613.395 206.02 614.385 207 615.105 208.28C615.845 209.56 616.215 211.05 616.215 212.75C616.215 214.45 615.835 215.95 615.075 217.25C614.335 218.53 613.325 219.52 612.045 220.22C610.765 220.92 609.345 221.27 607.785 221.27ZM607.785 218.87C608.765 218.87 609.685 218.64 610.545 218.18C611.405 217.72 612.095 217.03 612.615 216.11C613.155 215.19 613.425 214.07 613.425 212.75C613.425 211.43 613.165 210.31 612.645 209.39C612.125 208.47 611.445 207.79 610.605 207.35C609.765 206.89 608.855 206.66 607.875 206.66C606.875 206.66 605.955 206.89 605.115 207.35C604.295 207.79 603.635 208.47 603.135 209.39C602.635 210.31 602.385 211.43 602.385 212.75C602.385 214.09 602.625 215.22 603.105 216.14C603.605 217.06 604.265 217.75 605.085 218.21C605.905 218.65 606.805 218.87 607.785 218.87ZM618.784 212.75C618.784 211.05 619.124 209.57 619.804 208.31C620.484 207.03 621.424 206.04 622.624 205.34C623.844 204.64 625.234 204.29 626.794 204.29C628.814 204.29 630.474 204.78 631.774 205.76C633.094 206.74 633.964 208.1 634.384 209.84H631.444C631.164 208.84 630.614 208.05 629.794 207.47C628.994 206.89 627.994 206.6 626.794 206.6C625.234 206.6 623.974 207.14 623.014 208.22C622.054 209.28 621.574 210.79 621.574 212.75C621.574 214.73 622.054 216.26 623.014 217.34C623.974 218.42 625.234 218.96 626.794 218.96C627.994 218.96 628.994 218.68 629.794 218.12C630.594 217.56 631.144 216.76 631.444 215.72H634.384C633.944 217.4 633.064 218.75 631.744 219.77C630.424 220.77 628.774 221.27 626.794 221.27C625.234 221.27 623.844 220.92 622.624 220.22C621.424 219.52 620.484 218.53 619.804 217.25C619.124 215.97 618.784 214.47 618.784 212.75ZM647.207 221L640.757 213.74V221H638.027V198.8H640.757V211.85L647.087 204.56H650.897L643.157 212.75L650.927 221H647.207ZM664.194 200.09V221H661.464V200.09H664.194ZM676.857 204.26C678.857 204.26 680.477 204.87 681.717 206.09C682.957 207.29 683.577 209.03 683.577 211.31V221H680.877V211.7C680.877 210.06 680.467 208.81 679.647 207.95C678.827 207.07 677.707 206.63 676.287 206.63C674.847 206.63 673.697 207.08 672.837 207.98C671.997 208.88 671.577 210.19 671.577 211.91V221H668.847V204.56H671.577V206.9C672.117 206.06 672.847 205.41 673.767 204.95C674.707 204.49 675.737 204.26 676.857 204.26ZM691.367 206.81V216.5C691.367 217.3 691.537 217.87 691.877 218.21C692.217 218.53 692.807 218.69 693.647 218.69H695.657V221H693.197C691.677 221 690.537 220.65 689.777 219.95C689.017 219.25 688.637 218.1 688.637 216.5V206.81H686.507V204.56H688.637V200.42H691.367V204.56H695.657V206.81H691.367ZM713.964 212.15C713.964 212.67 713.934 213.22 713.874 213.8H700.734C700.834 215.42 701.384 216.69 702.384 217.61C703.404 218.51 704.634 218.96 706.074 218.96C707.254 218.96 708.234 218.69 709.014 218.15C709.814 217.59 710.374 216.85 710.694 215.93H713.634C713.194 217.51 712.314 218.8 710.994 219.8C709.674 220.78 708.034 221.27 706.074 221.27C704.514 221.27 703.114 220.92 701.874 220.22C700.654 219.52 699.694 218.53 698.994 217.25C698.294 215.95 697.944 214.45 697.944 212.75C697.944 211.05 698.284 209.56 698.964 208.28C699.644 207 700.594 206.02 701.814 205.34C703.054 204.64 704.474 204.29 706.074 204.29C707.634 204.29 709.014 204.63 710.214 205.31C711.414 205.99 712.334 206.93 712.974 208.13C713.634 209.31 713.964 210.65 713.964 212.15ZM711.144 211.58C711.144 210.54 710.914 209.65 710.454 208.91C709.994 208.15 709.364 207.58 708.564 207.2C707.784 206.8 706.914 206.6 705.954 206.6C704.574 206.6 703.394 207.04 702.414 207.92C701.454 208.8 700.904 210.02 700.764 211.58H711.144ZM720.298 207.23C720.778 206.29 721.458 205.56 722.338 205.04C723.238 204.52 724.328 204.26 725.608 204.26V207.08H724.888C721.828 207.08 720.298 208.74 720.298 212.06V221H717.568V204.56H720.298V207.23ZM734.879 218.48L739.979 204.56H742.889L736.439 221H733.259L726.809 204.56H729.749L734.879 218.48ZM746.986 201.89C746.466 201.89 746.026 201.71 745.666 201.35C745.306 200.99 745.126 200.55 745.126 200.03C745.126 199.51 745.306 199.07 745.666 198.71C746.026 198.35 746.466 198.17 746.986 198.17C747.486 198.17 747.906 198.35 748.246 198.71C748.606 199.07 748.786 199.51 748.786 200.03C748.786 200.55 748.606 200.99 748.246 201.35C747.906 201.71 747.486 201.89 746.986 201.89ZM748.306 204.56V221H745.576V204.56H748.306ZM767.958 212.15C767.958 212.67 767.928 213.22 767.868 213.8H754.728C754.828 215.42 755.378 216.69 756.378 217.61C757.398 218.51 758.628 218.96 760.068 218.96C761.248 218.96 762.228 218.69 763.008 218.15C763.808 217.59 764.368 216.85 764.688 215.93H767.628C767.188 217.51 766.308 218.8 764.988 219.8C763.668 220.78 762.028 221.27 760.068 221.27C758.508 221.27 757.108 220.92 755.868 220.22C754.648 219.52 753.688 218.53 752.988 217.25C752.288 215.95 751.938 214.45 751.938 212.75C751.938 211.05 752.278 209.56 752.958 208.28C753.638 207 754.588 206.02 755.808 205.34C757.048 204.64 758.468 204.29 760.068 204.29C761.628 204.29 763.008 204.63 764.208 205.31C765.408 205.99 766.328 206.93 766.968 208.13C767.628 209.31 767.958 210.65 767.958 212.15ZM765.138 211.58C765.138 210.54 764.908 209.65 764.448 208.91C763.988 208.15 763.358 207.58 762.558 207.2C761.778 206.8 760.908 206.6 759.948 206.6C758.568 206.6 757.388 207.04 756.408 207.92C755.448 208.8 754.898 210.02 754.758 211.58H765.138ZM793.462 204.56L788.332 221H785.512L781.552 207.95L777.592 221H774.772L769.612 204.56H772.402L776.182 218.36L780.262 204.56H783.052L787.042 218.39L790.762 204.56H793.462ZM801.991 221.27C800.731 221.27 799.601 221.06 798.601 220.64C797.601 220.2 796.811 219.6 796.231 218.84C795.651 218.06 795.331 217.17 795.271 216.17H798.091C798.171 216.99 798.551 217.66 799.231 218.18C799.931 218.7 800.841 218.96 801.961 218.96C803.001 218.96 803.821 218.73 804.421 218.27C805.021 217.81 805.321 217.23 805.321 216.53C805.321 215.81 805.001 215.28 804.361 214.94C803.721 214.58 802.731 214.23 801.391 213.89C800.171 213.57 799.171 213.25 798.391 212.93C797.631 212.59 796.971 212.1 796.411 211.46C795.871 210.8 795.601 209.94 795.601 208.88C795.601 208.04 795.851 207.27 796.351 206.57C796.851 205.87 797.561 205.32 798.481 204.92C799.401 204.5 800.451 204.29 801.631 204.29C803.451 204.29 804.921 204.75 806.041 205.67C807.161 206.59 807.761 207.85 807.841 209.45H805.111C805.051 208.59 804.701 207.9 804.061 207.38C803.441 206.86 802.601 206.6 801.541 206.6C800.561 206.6 799.781 206.81 799.201 207.23C798.621 207.65 798.331 208.2 798.331 208.88C798.331 209.42 798.501 209.87 798.841 210.23C799.201 210.57 799.641 210.85 800.161 211.07C800.701 211.27 801.441 211.5 802.381 211.76C803.561 212.08 804.521 212.4 805.261 212.72C806.001 213.02 806.631 213.48 807.151 214.1C807.691 214.72 807.971 215.53 807.991 216.53C807.991 217.43 807.741 218.24 807.241 218.96C806.741 219.68 806.031 220.25 805.111 220.67C804.211 221.07 803.171 221.27 801.991 221.27Z" fill="black"/>
<path d="M556.905 22.665V26.735H540.24V39.66H553.77V43.73H540.24V61H535.235V22.665H556.905ZM590.45 44.775C590.45 45.7283 590.395 46.7367 590.285 47.8H566.195C566.378 50.77 567.387 53.0983 569.22 54.785C571.09 56.435 573.345 57.26 575.985 57.26C578.148 57.26 579.945 56.765 581.375 55.775C582.842 54.7483 583.868 53.3917 584.455 51.705H589.845C589.038 54.6017 587.425 56.9667 585.005 58.8C582.585 60.5967 579.578 61.495 575.985 61.495C573.125 61.495 570.558 60.8533 568.285 59.57C566.048 58.2867 564.288 56.4717 563.005 54.125C561.722 51.7417 561.08 48.9917 561.08 45.875C561.08 42.7583 561.703 40.0267 562.95 37.68C564.197 35.3333 565.938 33.5367 568.175 32.29C570.448 31.0067 573.052 30.365 575.985 30.365C578.845 30.365 581.375 30.9883 583.575 32.235C585.775 33.4817 587.462 35.205 588.635 37.405C589.845 39.5683 590.45 42.025 590.45 44.775ZM585.28 43.73C585.28 41.8233 584.858 40.1917 584.015 38.835C583.172 37.4417 582.017 36.3967 580.55 35.7C579.12 34.9667 577.525 34.6 575.765 34.6C573.235 34.6 571.072 35.4067 569.275 37.02C567.515 38.6333 566.507 40.87 566.25 43.73H585.28ZM595.186 45.82C595.186 42.74 595.81 40.045 597.056 37.735C598.303 35.3883 600.008 33.5733 602.171 32.29C604.371 31.0067 606.81 30.365 609.486 30.365C612.126 30.365 614.418 30.9333 616.361 32.07C618.305 33.2067 619.753 34.6367 620.706 36.36V30.86H625.766V61H620.706V55.39C619.716 57.15 618.231 58.6167 616.251 59.79C614.308 60.9267 612.035 61.495 609.431 61.495C606.755 61.495 604.335 60.835 602.171 59.515C600.008 58.195 598.303 56.3433 597.056 53.96C595.81 51.5767 595.186 48.8633 595.186 45.82ZM620.706 45.875C620.706 43.6017 620.248 41.6217 619.331 39.935C618.415 38.2483 617.168 36.965 615.591 36.085C614.051 35.1683 612.346 34.71 610.476 34.71C608.606 34.71 606.901 35.15 605.361 36.03C603.821 36.91 602.593 38.1933 601.676 39.88C600.76 41.5667 600.301 43.5467 600.301 45.82C600.301 48.13 600.76 50.1467 601.676 51.87C602.593 53.5567 603.821 54.8583 605.361 55.775C606.901 56.655 608.606 57.095 610.476 57.095C612.346 57.095 614.051 56.655 615.591 55.775C617.168 54.8583 618.415 53.5567 619.331 51.87C620.248 50.1467 620.706 48.1483 620.706 45.875ZM640.329 34.985V52.75C640.329 54.2167 640.641 55.2617 641.264 55.885C641.888 56.4717 642.969 56.765 644.509 56.765H648.194V61H643.684C640.898 61 638.808 60.3583 637.414 59.075C636.021 57.7917 635.324 55.6833 635.324 52.75V34.985H631.419V30.86H635.324V23.27H640.329V30.86H648.194V34.985H640.329ZM680.988 30.86V61H675.983V56.545C675.03 58.085 673.692 59.295 671.968 60.175C670.282 61.0183 668.412 61.44 666.358 61.44C664.012 61.44 661.903 60.9633 660.033 60.01C658.163 59.02 656.678 57.5533 655.578 55.61C654.515 53.6667 653.983 51.3017 653.983 48.515V30.86H658.933V47.855C658.933 50.825 659.685 53.1167 661.188 54.73C662.692 56.3067 664.745 57.095 667.348 57.095C670.025 57.095 672.133 56.27 673.673 54.62C675.213 52.97 675.983 50.5683 675.983 47.415V30.86H680.988ZM694.444 35.755C695.324 34.0317 696.571 32.6933 698.184 31.74C699.834 30.7867 701.832 30.31 704.179 30.31V35.48H702.859C697.249 35.48 694.444 38.5233 694.444 44.61V61H689.439V30.86H694.444V35.755ZM737.457 44.775C737.457 45.7283 737.402 46.7367 737.292 47.8H713.202C713.385 50.77 714.393 53.0983 716.227 54.785C718.097 56.435 720.352 57.26 722.992 57.26C725.155 57.26 726.952 56.765 728.382 55.775C729.848 54.7483 730.875 53.3917 731.462 51.705H736.852C736.045 54.6017 734.432 56.9667 732.012 58.8C729.592 60.5967 726.585 61.495 722.992 61.495C720.132 61.495 717.565 60.8533 715.292 59.57C713.055 58.2867 711.295 56.4717 710.012 54.125C708.728 51.7417 708.087 48.9917 708.087 45.875C708.087 42.7583 708.71 40.0267 709.957 37.68C711.203 35.3333 712.945 33.5367 715.182 32.29C717.455 31.0067 720.058 30.365 722.992 30.365C725.852 30.365 728.382 30.9883 730.582 32.235C732.782 33.4817 734.468 35.205 735.642 37.405C736.852 39.5683 737.457 42.025 737.457 44.775ZM732.287 43.73C732.287 41.8233 731.865 40.1917 731.022 38.835C730.178 37.4417 729.023 36.3967 727.557 35.7C726.127 34.9667 724.532 34.6 722.772 34.6C720.242 34.6 718.078 35.4067 716.282 37.02C714.522 38.6333 713.513 40.87 713.257 43.73H732.287ZM754.733 61.495C752.423 61.495 750.351 61.11 748.518 60.34C746.685 59.5333 745.236 58.4333 744.173 57.04C743.11 55.61 742.523 53.9783 742.413 52.145H747.583C747.73 53.6483 748.426 54.8767 749.673 55.83C750.956 56.7833 752.625 57.26 754.678 57.26C756.585 57.26 758.088 56.8383 759.188 55.995C760.288 55.1517 760.838 54.0883 760.838 52.805C760.838 51.485 760.251 50.5133 759.078 49.89C757.905 49.23 756.09 48.5883 753.633 47.965C751.396 47.3783 749.563 46.7917 748.133 46.205C746.74 45.5817 745.53 44.6833 744.503 43.51C743.513 42.3 743.018 40.7233 743.018 38.78C743.018 37.24 743.476 35.8283 744.393 34.545C745.31 33.2617 746.611 32.2533 748.298 31.52C749.985 30.75 751.91 30.365 754.073 30.365C757.41 30.365 760.105 31.2083 762.158 32.895C764.211 34.5817 765.311 36.8917 765.458 39.825H760.453C760.343 38.2483 759.701 36.9833 758.528 36.03C757.391 35.0767 755.851 34.6 753.908 34.6C752.111 34.6 750.681 34.985 749.618 35.755C748.555 36.525 748.023 37.5333 748.023 38.78C748.023 39.77 748.335 40.595 748.958 41.255C749.618 41.8783 750.425 42.3917 751.378 42.795C752.368 43.1617 753.725 43.5833 755.448 44.06C757.611 44.6467 759.371 45.2333 760.728 45.82C762.085 46.37 763.24 47.2133 764.193 48.35C765.183 49.4867 765.696 50.9717 765.733 52.805C765.733 54.455 765.275 55.94 764.358 57.26C763.441 58.58 762.14 59.625 760.453 60.395C758.803 61.1283 756.896 61.495 754.733 61.495Z" fill="black"/>
<path fill-rule="evenodd" clip-rule="evenodd" d="M806.526 23.3311C807.045 23.552 807.381 24.0612 807.381 24.625V37.7466H814.75C815.25 37.7466 815.713 38.0122 815.965 38.4441C816.217 38.876 816.22 39.4093 815.974 39.8446L815.052 41.4775C811.553 47.67 807.09 53.2661 801.832 58.0559L800.341 59.4146C799.929 59.7896 799.335 59.8864 798.825 59.6613C798.316 59.4363 797.988 58.9319 797.988 58.375V45.3646H790.375C789.598 45.3646 788.969 44.735 788.969 43.9584C788.969 43.7068 789.035 43.4707 789.15 43.2664C792.448 37.17 796.67 31.6209 801.667 26.8168L805 23.6113C805.407 23.2206 806.007 23.1103 806.526 23.3311ZM792.784 42.5521H799.394C800.17 42.5521 800.8 43.1817 800.8 43.9584V55.1772C805.335 50.8918 809.222 45.9675 812.338 40.5591H805.975C805.198 40.5591 804.569 39.9295 804.569 39.1529V27.928L803.616 28.8441C799.396 32.902 795.752 37.5145 792.784 42.5521Z" fill="black"/>
</svg>
